<svg xmlns="http://www.w3.org/2000/svg" viewBox="0 0 100 100">
  <title>splunk-1</title>
  <g>
    <path d="M13.352,45.365a3.579,3.579,0,0,0-2.24-.786c-.917,0-1.775.465-1.775,1.311.071,1.906,5.456,3.479,5.456,6.576,0,.6.334,4.277-5.325,4.539A7.253,7.253,0,0,1,5,55.433l1.191-1.966c2.169,1.7,2.9,1.382,3.027,1.382,1.906-.071,1.906-1.382,1.834-1.775-.071-2.3-5.456-3.348-5.325-6.839C5.8,43.6,8.36,42.494,10.492,42.494a8.033,8.033,0,0,1,4,1.12Z"/>
    <path d="M25.182,42.554c-4-.131-5.063,2.383-5.063,2.383V42.875H16.545V63.7h3.574V54.825a5.3,5.3,0,0,0,4.134,2.24c5.123,0,6.767-4.766,6.767-7.422C30.961,46.676,29.65,42.673,25.182,42.554ZM23.538,54.9c-2.383,0-3.574-2.3-3.574-5.064s1.191-5.063,3.574-5.063c2.562,0,3.574,2.3,3.574,5.063C27.112,52.4,25.992,54.9,23.538,54.9Z"/>
    <rect x="32.545" y="36.299" width="3.741" height="20.433"/>
    <path d="M42.243,51.477a2.658,2.658,0,0,0,2.3,2.974,2.778,2.778,0,0,0,.491.017c.262,0,3.026.2,3.157-3.682V42.8h3.574V56.731H48.2V54.9a5.957,5.957,0,0,1-4.6,2.168,4.562,4.562,0,0,1-4.972-4.113c-.011-.118-.018-.236-.02-.355V42.8h3.634Z"/>
    <path d="M63.891,48.058a2.656,2.656,0,0,0-2.258-3,2.6,2.6,0,0,0-.506-.023c-.262,0-3.026-.2-3.157,3.681v8.018H54.4V42.8H57.97v1.835a5.958,5.958,0,0,1,4.6-2.169,4.564,4.564,0,0,1,4.972,4.114c.011.117.018.236.019.354v9.793H63.891Z"/>
    <polygon points="73.803 56.731 70.134 56.731 70.134 36.299 73.803 36.299 73.803 48.32 74.137 48.32 79.129 42.613 81.893 43.793 77.163 48.844 82.751 55.814 79.332 56.994 73.875 49.44 73.803 49.38 73.803 56.731"/>
    <polygon points="97 50.822 85.968 56.279 85.968 53.908 94.57 49.643 85.968 45.497 85.968 43.006 97 48.523 97 50.822" fill="#97999b"/>
  </g>
</svg>
