<svg xmlns="http://www.w3.org/2000/svg" xmlns:xlink="http://www.w3.org/1999/xlink" viewBox="0 0 100 100">
  <defs>
    <linearGradient id="a" x1="1230.912" y1="-3451.889" x2="1288.963" y2="-3451.889" gradientTransform="translate(1591.407 3374.496) rotate(-45)" gradientUnits="userSpaceOnUse">
      <stop offset="0" stop-color="#623392"/>
      <stop offset="0.589" stop-color="#432c7d"/>
      <stop offset="1" stop-color="#2b266d"/>
    </linearGradient>
    <linearGradient id="b" x1="1230.912" y1="-3444.005" x2="1288.963" y2="-3444.005" xlink:href="#a"/>
    <linearGradient id="c" x1="1230.912" y1="-3455.026" x2="1288.963" y2="-3455.026" gradientTransform="translate(1591.407 3374.496) rotate(-45)" gradientUnits="userSpaceOnUse">
      <stop offset="0" stop-color="#754f9f"/>
      <stop offset="0.205" stop-color="#6d4b9a"/>
      <stop offset="0.517" stop-color="#583f8b"/>
      <stop offset="0.896" stop-color="#362c74"/>
      <stop offset="1" stop-color="#2b266d"/>
    </linearGradient>
    <linearGradient id="d" x1="1230.912" y1="-3427.443" x2="1288.963" y2="-3427.443" xlink:href="#c"/>
    <linearGradient id="e" x1="1230.912" y1="-3441.125" x2="1288.963" y2="-3441.125" xlink:href="#a"/>
    <linearGradient id="f" x1="1225.409" y1="-3441.125" x2="1295.125" y2="-3441.125" xlink:href="#c"/>
    <linearGradient id="g" x1="1225.409" y1="-3433.996" x2="1295.125" y2="-3433.996" xlink:href="#a"/>
    <linearGradient id="h" x1="1225.409" y1="-3437.979" x2="1295.125" y2="-3437.979" xlink:href="#a"/>
    <linearGradient id="i" x1="1225.409" y1="-3448.061" x2="1295.125" y2="-3448.061" xlink:href="#a"/>
  </defs>
  <title>coredns-1</title>
  <g>
    <path d="M32.236,51.71A7.822,7.822,0,0,0,30.841,53.6a7.822,7.822,0,0,1,1.395-1.893Z" fill="url(#a)"/>
    <path d="M55.806,35.029A4.165,4.165,0,0,1,58.76,36.25l2.422,2.422h0L58.76,36.25A4.165,4.165,0,0,0,55.806,35.029Z" fill="url(#b)"/>
    <path d="M32.225,37.945a6.879,6.879,0,0,1,9.73,0l2.023,2.023,6.3-6.3a7.834,7.834,0,0,1,11.066,0l2.422,2.422,6.056-6.056L56.629,16.85a9.8,9.8,0,0,0-13.816,0L15.581,44.082a9.8,9.8,0,0,0-1.445,11.951l.085-.085Z" fill="url(#c)"/>
    <path d="M67.777,61.642a6.881,6.881,0,0,1-9.732,0l-2.4-2.4-7.939,7.939a7.834,7.834,0,0,1-11.066,0L34.6,65.137l-5.888,5.888L40.834,83.15a9.8,9.8,0,0,0,13.816,0L81.882,55.918a9.8,9.8,0,0,0,2.155-10.536l-.884.883Z" fill="url(#d)"/>
    <path d="M45.129,64.6h0a4.181,4.181,0,0,1-5.908,0l-2.046-2.046L34.814,60.2a4.161,4.161,0,0,1-1.222-2.954A4.206,4.206,0,0,1,33.9,55.67a4.148,4.148,0,0,1,.917-1.381h0L46.557,42.547l6.295-6.295h0a4.159,4.159,0,0,1,2.156-1.146,4.281,4.281,0,0,1,.8-.077A4.165,4.165,0,0,1,58.76,36.25l2.422,2.422,2.579-2.578h0l-2.422-2.422a7.834,7.834,0,0,0-11.066,0l-6.3,6.3L32.236,51.71A7.822,7.822,0,0,0,30.841,53.6q-.178.34-.322.7a7.822,7.822,0,0,0,1.716,8.478L34.6,65.137l2.046,2.046a7.834,7.834,0,0,0,11.066,0l7.939-7.939-2.579-2.578Z" fill="#fff"/>
    <path d="M83.153,46.265l.884-.883a9.669,9.669,0,0,0-1.306-2.293C82.918,44.143,83.063,45.2,83.153,46.265Z" fill="#2b266d"/>
    <path d="M14.221,55.948l-.085.085c.055.091.1.184.162.274C14.273,56.187,14.245,56.068,14.221,55.948Z" fill="#5a2d81"/>
    <path d="M53,46.86l8.187-8.188L58.76,36.25a4.165,4.165,0,0,0-2.954-1.221,4.281,4.281,0,0,0-.8.077,4.159,4.159,0,0,0-2.156,1.146l-6.295,6.295.45.449a6.882,6.882,0,0,1,0,9.73l-9.832,9.832L39.221,64.6a4.178,4.178,0,0,0,5.908,0l7.939-7.939-.074-.074A6.882,6.882,0,0,1,53,46.86Z" fill="url(#e)"/>
    <path d="M53,46.86l8.187-8.188L58.76,36.25a4.165,4.165,0,0,0-2.954-1.221,4.281,4.281,0,0,0-.8.077,4.159,4.159,0,0,0-2.156,1.146l-6.295,6.295.45.449a6.882,6.882,0,0,1,0,9.73l-9.832,9.832L39.221,64.6a4.178,4.178,0,0,0,5.908,0l7.939-7.939-.074-.074A6.882,6.882,0,0,1,53,46.86Z" fill="url(#f)"/>
    <path d="M45.129,64.6h0a4.16,4.16,0,0,1-1.381.916A4.16,4.16,0,0,0,45.129,64.6Z" fill="#fff"/>
    <path d="M45.129,64.6h0a4.16,4.16,0,0,1-1.381.916A4.16,4.16,0,0,0,45.129,64.6Z" fill="url(#g)"/>
    <path d="M37.175,62.558h0L39.221,64.6a4.161,4.161,0,0,0,2.954,1.222A4.161,4.161,0,0,1,39.221,64.6Z" fill="#fff"/>
    <path d="M37.175,62.558h0L39.221,64.6a4.161,4.161,0,0,0,2.954,1.222A4.161,4.161,0,0,1,39.221,64.6Z" fill="url(#h)"/>
    <path d="M52.852,36.252h0a4.159,4.159,0,0,1,2.156-1.146A4.159,4.159,0,0,0,52.852,36.252Z" fill="#fff"/>
    <path d="M52.852,36.252h0a4.159,4.159,0,0,1,2.156-1.146A4.159,4.159,0,0,0,52.852,36.252Z" fill="url(#i)"/>
    <path d="M15.581,57.9a9.675,9.675,0,0,1-1.283-1.59c-.058-.09-.107-.183-.162-.274l-2.59,2.591a6.879,6.879,0,0,0,0,9.729L16.6,73.405a6.885,6.885,0,0,0,9.73,0l1.612-1.611.575-.576.193-.193Z" fill="#2b266d"/>
    <path d="M32.235,62.776A7.822,7.822,0,0,1,30.519,54.3q.144-.354.322-.7a7.822,7.822,0,0,1,1.395-1.893h0L43.978,39.968l-2.023-2.023a6.879,6.879,0,0,0-9.73,0l-18,18c.024.12.052.239.077.359a9.675,9.675,0,0,0,1.283,1.59L28.708,71.025,34.6,65.137Z" fill="#5a2d81"/>
    <path d="M30.519,54.3a7.86,7.86,0,0,0,.322,6.585A7.86,7.86,0,0,1,30.519,54.3Z" fill="#5a2d81"/>
    <path d="M37.175,62.558l9.832-9.832a6.882,6.882,0,0,0,0-9.73l-.45-.449L34.815,54.289A4.148,4.148,0,0,0,33.9,55.67a4.206,4.206,0,0,0-.306,1.573A4.161,4.161,0,0,0,34.814,60.2Z" fill="#5a2d81"/>
    <path d="M34.814,60.2a4.161,4.161,0,0,1-1.222-2.954A4.161,4.161,0,0,0,34.814,60.2l2.361,2.361h0Z" fill="#5a2d81"/>
    <path d="M34.815,54.289A4.148,4.148,0,0,0,33.9,55.67a4.148,4.148,0,0,1,.917-1.381Z" fill="#5a2d81"/>
    <path d="M61.182,38.672,53,46.86a6.882,6.882,0,0,0,0,9.731l.074.074,10.1-10.1a4.148,4.148,0,0,0,1.146-2.156,4.182,4.182,0,0,0-1.145-3.753Z" fill="#2b266d"/>
    <path d="M63.166,46.566a4.148,4.148,0,0,0,1.146-2.156,4.148,4.148,0,0,1-1.146,2.156Z" fill="#2b266d"/>
    <path d="M63.167,40.657a4.165,4.165,0,0,1,1.222,2.955,4.165,4.165,0,0,0-1.222-2.955l-1.985-1.985h0Z" fill="#623392"/>
    <path d="M65.745,49.145a7.775,7.775,0,0,0,1.716-2.587,7.765,7.765,0,0,1-1.716,2.587Z" fill="#623392"/>
    <path d="M67.461,46.558c.1-.236.179-.475.251-.717a7.831,7.831,0,0,0-1.966-7.762l-1.985-1.985-2.579,2.578,1.985,1.985a4.181,4.181,0,0,1,0,5.909h0l-10.1,10.1,2.579,2.578,10.1-10.1A7.765,7.765,0,0,0,67.461,46.558Z" fill="#623392"/>
    <path d="M88.454,31.233,83.4,26.182a6.881,6.881,0,0,0-9.233-.45c-.171.141-.338.29-.5.45l-3.26,3.261-.576.576-.019.019L81.882,42.1a10.221,10.221,0,0,1,2.155,3.279l4.417-4.418A6.881,6.881,0,0,0,88.454,31.233Z" fill="#623392"/>
    <path d="M65.746,38.079a7.831,7.831,0,0,1,1.966,7.762c-.072.242-.155.481-.251.717a7.775,7.775,0,0,1-1.716,2.587h0l-10.1,10.1,2.4,2.4a6.881,6.881,0,0,0,9.732,0L83.153,46.265c-.09-1.063-.235-2.122-.422-3.176a9.7,9.7,0,0,0-.849-.986L69.817,30.038l-6.056,6.056Z" fill="#2b266d"/>
    <path d="M65.746,38.079a7.831,7.831,0,0,1,1.966,7.762,7.831,7.831,0,0,0-1.966-7.762l-1.985-1.985h0Z" fill="#2b266d"/>
  </g>
</svg>
