<svg xmlns="http://www.w3.org/2000/svg" viewBox="0 0 100 100">
  <title>wordpress-1</title>
  <g>
    <path d="M50,16.16a33.669,33.669,0,0,1,18.919,5.778A33.946,33.946,0,0,1,81.182,36.829a33.792,33.792,0,0,1-3.12,32.09A33.946,33.946,0,0,1,63.171,81.182a33.792,33.792,0,0,1-32.09-3.12A33.946,33.946,0,0,1,18.818,63.171a33.792,33.792,0,0,1,3.12-32.09A33.946,33.946,0,0,1,36.829,18.818,33.623,33.623,0,0,1,50,16.16M50,14A36,36,0,1,0,86,50,36,36,0,0,0,50,14Z" fill="#32373c"/>
    <path d="M20,50A30,30,0,0,0,36.909,77L22.6,37.79A29.879,29.879,0,0,0,20,50Zm50.252-1.513a15.8,15.8,0,0,0-2.473-8.273c-1.52-2.473-2.947-4.564-2.947-7.037a5.194,5.194,0,0,1,5.038-5.324c.133,0,.259.016.389.024a29.994,29.994,0,0,0-45.325,5.645c.7.023,1.368.037,1.931.037,3.137,0,8-.382,8-.382a1.24,1.24,0,0,1,.191,2.473s-1.625.19-3.433.285l10.924,32.5L49.11,48.74,44.436,35.934c-1.616-.095-3.147-.285-3.147-.285a1.24,1.24,0,0,1,.191-2.473s4.953.382,7.9.382c3.137,0,8-.382,8-.382a1.24,1.24,0,0,1,.191,2.473s-1.627.19-3.433.285L64.977,68.182l3.094-9.807C69.446,54.089,70.252,51.053,70.252,48.486ZM50.527,52.623l-9,26.155A30.015,30.015,0,0,0,59.963,78.3a2.774,2.774,0,0,1-.215-.413Zm25.8-17.016a23.01,23.01,0,0,1,.2,3.085,28.319,28.319,0,0,1-2.282,10.745L65.083,75.929A30,30,0,0,0,76.326,35.607Z" fill="#32373c"/>
  </g>
</svg>
