<svg xmlns="http://www.w3.org/2000/svg" viewBox="0 0 100 100">
  <title>ceph-2</title>
  <rect width="100" height="100" fill="#f05c56"/>
  <g>
    <path d="M72.749,77.741c-2.558-1.362-4.024-2.9-4.346-4.564-.309-1.611.407-3.406,2.2-5.491A27.143,27.143,0,0,0,50.122,22.739h-.244A27.143,27.143,0,0,0,29.394,67.686c1.809,2.1,2.512,3.814,2.21,5.419-.309,1.663-1.776,3.222-4.36,4.636a38.341,38.341,0,0,1-9.621-12.133A35.736,35.736,0,0,1,14,49.878,35.851,35.851,0,0,1,49.878,14h.244A35.851,35.851,0,0,1,86,49.878a35.736,35.736,0,0,1-3.623,15.73,38.286,38.286,0,0,1-9.628,12.133" fill="#fff"/>
    <path d="M59.512,84.455a13.26,13.26,0,0,1-3.229-3.249,14.653,14.653,0,0,1-2.814-8.969,19.892,19.892,0,0,1,5.372-13.2l.014-.013c.124-.145.243-.289.368-.428a16.92,16.92,0,0,0,1.808-2.373,12.24,12.24,0,0,0,1.388-3.407A12.642,12.642,0,0,0,56.8,39.153a12.627,12.627,0,0,0-4.88-1.776,12.441,12.441,0,0,0-1.788-.124h-.263a12.288,12.288,0,0,0-1.782.124A12.627,12.627,0,0,0,37.6,52.811a12.237,12.237,0,0,0,1.387,3.407,16.578,16.578,0,0,0,1.808,2.373c.125.139.244.283.369.428l.006.013a20.17,20.17,0,0,1,3.906,6.1,19.749,19.749,0,0,1,1.467,7.109,14.684,14.684,0,0,1-2.815,8.969,13.5,13.5,0,0,1-3.229,3.249c-.7-.184-1.394-.395-2.078-.625a35.851,35.851,0,0,1-5.977-2.637,10.2,10.2,0,0,0,5.366-8.963,10.777,10.777,0,0,0-2.867-7.082c-.026-.033-.059-.06-.079-.086-.007-.006-.013-.006-.013-.013-.184-.21-.375-.414-.553-.612-.545-.6-1.065-1.17-1.525-1.788a21.36,21.36,0,0,1,14.1-33.919,20.776,20.776,0,0,1,3.012-.21h.27a20.762,20.762,0,0,1,3.011.21,21.409,21.409,0,0,1,8.273,3.012,21.366,21.366,0,0,1,9.5,23.088,21.411,21.411,0,0,1-3.663,7.819c-.467.625-.98,1.19-1.526,1.788-.177.2-.362.4-.552.612-.007.007-.013.007-.02.013a1.032,1.032,0,0,0-.079.086,10.869,10.869,0,0,0-2.867,7.075,10.2,10.2,0,0,0,5.366,8.963,35.743,35.743,0,0,1-5.978,2.637c-.7.237-1.407.448-2.1.632" fill="#fff"/>
    <path d="M50,57.3a7.083,7.083,0,1,1,7.083-7.083A7.09,7.09,0,0,1,50,57.3" fill="#fff"/>
  </g>
</svg>
