<svg xmlns="http://www.w3.org/2000/svg" viewBox="0 0 100 100">
  <title>ubuntu-2</title>
  <g>
    <rect width="100" height="100" fill="#e95420"/>
    <g>
      <path d="M86,50A36,36,0,1,1,50,14,36,36,0,0,1,86,50Z" fill="#fff"/>
      <path d="M31.317,50a4.629,4.629,0,1,1-4.631-4.628A4.63,4.63,0,0,1,31.317,50ZM57.65,72.505a4.628,4.628,0,1,0,1.694-6.321A4.63,4.63,0,0,0,57.65,72.505Zm8.015-40.381a4.628,4.628,0,1,0-6.321,1.693A4.625,4.625,0,0,0,65.665,32.124ZM50,36.8A13.2,13.2,0,0,1,63.148,48.831l6.7-.106a19.828,19.828,0,0,0-5.841-12.84,6.51,6.51,0,0,1-8.783-5.076A19.955,19.955,0,0,0,41.18,32.173l3.259,5.853A13.175,13.175,0,0,1,50,36.8ZM36.8,50a13.181,13.181,0,0,1,5.612-10.8L38.974,33.45a19.915,19.915,0,0,0-8.2,11.476,6.511,6.511,0,0,1,0,10.148,19.926,19.926,0,0,0,8.2,11.478L42.413,60.8A13.187,13.187,0,0,1,36.8,50ZM50,63.2a13.146,13.146,0,0,1-5.562-1.227L41.18,67.826a19.96,19.96,0,0,0,14.043,1.366,6.51,6.51,0,0,1,8.783-5.076,19.835,19.835,0,0,0,5.841-12.842l-6.7-.1A13.2,13.2,0,0,1,50,63.2Z" fill="#e95420"/>
    </g>
  </g>
</svg>
