<svg xmlns="http://www.w3.org/2000/svg" viewBox="0 0 100 100">
  <title>openstack-1</title>
  <g>
    <path d="M76.607,18H23.393a6.093,6.093,0,0,0-6.079,6.078V38.394H32.079V36.056a3.3,3.3,0,0,1,3.291-3.291H64.653a3.291,3.291,0,0,1,3.283,3.291v2.338H82.708V24.078A6.093,6.093,0,0,0,76.607,18Z" fill="#ed1944"/>
    <path d="M67.913,63.944a3.29,3.29,0,0,1-3.283,3.291H35.347a3.3,3.3,0,0,1-3.29-3.291V61.606H17.292V75.922A6.093,6.093,0,0,0,23.37,82H76.585a6.093,6.093,0,0,0,6.078-6.078V61.606H67.913Z" fill="#ed1944"/>
    <rect x="17.292" y="42.614" width="14.765" height="14.765" fill="#ed1944"/>
    <rect x="67.921" y="42.614" width="14.765" height="14.765" fill="#ed1944"/>
  </g>
</svg>
