<svg xmlns="http://www.w3.org/2000/svg" viewBox="0 0 100 100">
  <title>datadog-1</title>
  <path d="M73.9,65.962l-6.3-4.171L62.337,70.6l-6.115-1.794-5.386,8.245.276,2.594,29.279-5.411-1.7-18.35ZM46.6,58.051l4.7-.649a11.734,11.734,0,0,0,2.2.706,6.889,6.889,0,0,0,5.495-.5,9.594,9.594,0,0,0,2.222-1.981l19.246-3.5,1.963,23.836L49.447,81.92Zm35.752-8.589-1.9.363L76.8,12,14.608,19.233,22.269,81.6l7.28-1.06a16.4,16.4,0,0,0-3.033-3.129c-2.144-1.787-1.385-4.821-.121-6.738,1.673-3.238,10.294-7.352,9.806-12.527-.175-1.882-.473-4.331-2.215-6.009a5.862,5.862,0,0,0,.052,1.367,7.031,7.031,0,0,1-1.071-2.163,10.647,10.647,0,0,1-1.008-1.27,4.81,4.81,0,0,0-.233,1.6,10.027,10.027,0,0,1-.679-2.555,4.065,4.065,0,0,0-.434,1.518,9.852,9.852,0,0,1-.587-3.363,15.931,15.931,0,0,1-1.084-7.676c1.9,1.334,6.076,1.017,7.7-1.39.54-.8.911-2.972-.27-7.26a64.335,64.335,0,0,0-3.368-8.4l-.087.064c.385,1.251,1.18,3.874,1.486,5.146.924,3.858,1.172,5.2.738,6.98-.369,1.546-1.254,2.558-3.5,3.688s-5.219-1.626-5.407-1.779c-2.18-1.741-3.865-4.582-4.054-5.962-.2-1.511.868-2.418,1.4-3.653a13.674,13.674,0,0,0-1.623.611,19.613,19.613,0,0,1,2.28-1.977,13.3,13.3,0,0,0,1.377-1.024c-.8-.013-1.442.009-1.442.009a25.744,25.744,0,0,1,2.7-1.242c-1.006-.045-1.969-.008-1.969-.008s2.96-1.328,5.3-2.3c1.607-.661,3.178-.466,4.061.814a7.039,7.039,0,0,0,4.953,3.152,21.225,21.225,0,0,1,4.053-1.61,6.424,6.424,0,0,1,3.126-2.181,3.186,3.186,0,0,0-.865,1.613,23.066,23.066,0,0,1,2.081-1.44,7.4,7.4,0,0,0-.814,1.351l.091.136a20.648,20.648,0,0,1,2.521-1.246s-.39.493-.846,1.132c.874-.007,2.645.037,3.332.116,4.059.089,4.9-4.348,6.459-4.9,1.95-.7,2.822-1.121,6.145,2.153,2.852,2.811,5.079,7.843,3.973,8.97-.928.935-2.757-.366-4.785-2.9A11,11,0,0,1,61.437,21.3a4.852,4.852,0,0,0-1.566-2.69,8.883,8.883,0,0,1,.722,3.042c0,.778.1,3.688,1.342,5.322-.123.238-.181,1.181-.317,1.361-1.447-1.754-4.556-3.01-5.063-3.38,1.716,1.41,5.659,4.649,7.173,7.754,1.433,2.936.589,5.627,1.314,6.324.206.2,3.081,3.793,3.634,5.6a10.818,10.818,0,0,1-1.2,8.5l-3.527.551a4.924,4.924,0,0,1-1.326-.484,8.854,8.854,0,0,0,.767-1.814l-.2-.35a14.9,14.9,0,0,1-4.463,3.943,7.526,7.526,0,0,1-5.8.5,33.09,33.09,0,0,1-9.252-4.961s-.03.6.152.741A32.947,32.947,0,0,0,49.73,56.2l-5.067.559,2.4,18.708c-1.062.152-1.228.227-2.39.393a12.526,12.526,0,0,0-5.126-7.382,9.648,9.648,0,0,0-6.989-1l-.161.186a8.977,8.977,0,0,1,5.885,1.407c2.064,1.309,3.727,4.69,4.34,6.726.784,2.6,1.326,5.385-.784,8.336-1.5,2.1-5.885,3.256-9.426.749a5.764,5.764,0,0,0,3.946,3.008c2.555.348,4.981-.1,6.65-1.816,1.425-1.47,2.181-4.544,1.981-7.781l2.256-.328.814,5.81,37.337-4.51ZM59.63,33.684c-.1.239-.268.4-.022,1.172l.015.045.039.1.1.233a4.617,4.617,0,0,0,1.743,2.2,5.453,5.453,0,0,1,.654-.071,2.974,2.974,0,0,1,1.552.253,3.352,3.352,0,0,0,.016-.706c-.059-1.151.228-3.109-1.978-4.139a2.262,2.262,0,0,0-2.39.216,1.069,1.069,0,0,1,.185.041c.588.205.189.408.083.652m6.183,10.741a8.048,8.048,0,0,0-2.591.017,12.317,12.317,0,0,0-4.193,1.179,1.327,1.327,0,0,0,.15,2.088c1.614,1.209,3.027,2.019,4.52,1.822.916-.122,1.725-1.576,2.3-2.9.392-.909.392-1.891-.182-2.209M49.786,35.109c.51-.486-2.543-1.125-4.912.5a3.286,3.286,0,0,0-.131,5.212,4.148,4.148,0,0,0,.434.329,14.216,14.216,0,0,1,1.686-.672,15.083,15.083,0,0,1,2.722-.632,2.969,2.969,0,0,0,.663-2.36c-.14-1.715-1.436-1.443-.462-2.373" fill="#7749a3" fill-rule="evenodd"/>
</svg>
