<svg xmlns="http://www.w3.org/2000/svg" viewBox="0 0 100 100">
  <title>elasticsearch-2</title>
  <g>
    <rect width="100" height="100" fill="#005571"/>
    <path d="M44.637,60.776l-29.1-.3a36.159,36.159,0,0,1,.225-21.6l29.1.3,18.817.2a10.8,10.8,0,0,1-.225,21.6Zm-1.391,3.586-26.39-.275a36.159,36.159,0,0,0,13.031,15.8h0a36,36,0,0,0,49.855-9.572,18.2,18.2,0,0,0-13.061-5.709ZM66.981,35.807a18.2,18.2,0,0,0,13.176-5.436A35.994,35.994,0,0,0,30.513,19.764h0A36.151,36.151,0,0,0,17.156,35.289l26.39.275Z" fill="#fff"/>
  </g>
</svg>
