<svg xmlns="http://www.w3.org/2000/svg" viewBox="0 0 100 100">
  <title>elasticsearch-1</title>
  <g>
    <g>
      <path d="M63.567,39.2H44.749q.2.639.379,1.289A35.9,35.9,0,0,1,46.293,47.2q.106,1.385.107,2.8t-.107,2.8a35.9,35.9,0,0,1-1.165,6.715q-.177.649-.379,1.289H63.567a10.8,10.8,0,0,0,0-21.6Z" fill="#00a9e5"/>
      <path d="M46.293,52.8q.106-1.385.107-2.8t-.107-2.8a35.9,35.9,0,0,0-1.165-6.715q-.177-.649-.379-1.289h-29.1a36.15,36.15,0,0,0,0,21.6h29.1q.2-.639.379-1.289A35.9,35.9,0,0,0,46.293,52.8Z" fill="#353535"/>
    </g>
    <g>
      <path d="M66.832,64.4H43.4a35.96,35.96,0,0,1-2.431,4.616,36.186,36.186,0,0,1-4.789,6.1q-.9.926-1.87,1.786A36.093,36.093,0,0,1,30.2,80.063a36,36,0,0,0,49.752-10.09A18.2,18.2,0,0,0,66.832,64.4Z" fill="#00bfb3"/>
      <path d="M40.965,69.016A35.96,35.96,0,0,0,43.4,64.4H17A36.154,36.154,0,0,0,30.2,80.063a36.093,36.093,0,0,0,4.107-3.156q.966-.859,1.87-1.786A36.186,36.186,0,0,0,40.965,69.016Z" fill="#019b8f"/>
    </g>
    <g>
      <path d="M36.176,24.879q-.9-.926-1.87-1.786A36.093,36.093,0,0,0,30.2,19.937,36.154,36.154,0,0,0,17,35.6H43.4a35.96,35.96,0,0,0-2.431-4.616A36.186,36.186,0,0,0,36.176,24.879Z" fill="#f9b110"/>
      <path d="M50,14a35.809,35.809,0,0,0-19.8,5.937,36.093,36.093,0,0,1,4.107,3.156q.966.86,1.87,1.786a36.186,36.186,0,0,1,4.789,6.105A35.96,35.96,0,0,1,43.4,35.6H66.832a18.2,18.2,0,0,0,13.119-5.573A35.96,35.96,0,0,0,50,14Z" fill="#fed10a"/>
    </g>
  </g>
</svg>
